# xmcd
#
# Track frame offsets:
#	150
#	17600
#	31597
#	47972
#	63740
#	81882
#	96097
#	115540
#	130437
#	144580
#
# Disc length: 2126 seconds
#
# Revision: 3
# Processed by: cddbd v1.5.2PL0 Copyright (c) Steve Scherf et al.
# Submitted via: EasyCDDAExtractor 15.3.0.1
#
DISCID=81084c0a
DTITLE=Lourdes Robles - Tuya...
DYEAR=2000
DGENRE=Latin
TTITLE0=Lo Odio
TTITLE1=Tuya
TTITLE2=Vete Ya
TTITLE3=Alguien Como Tu
TTITLE4=Sola
TTITLE5=Tu Recuerdo
TTITLE6=No Puedo
TTITLE7=Mañana
TTITLE8=Tomame
TTITLE9=Si No Estas
EXTD=
EXTT0=
EXTT1=
EXTT2=
EXTT3=
EXTT4=
EXTT5=
EXTT6=
EXTT7=
EXTT8=
EXTT9=
PLAYORDER=
